<svg width="256" height="256" viewBox="0 0 256 256" fill="none" xmlns="http://www.w3.org/2000/svg">
<path d="M105.307 256H97.3674C76.7429 256 64.3343 255.996 54.8555 254.263L109.713 182.857L105.307 256Z" fill="#4B6272"/>
<path d="M201.142 254.481C191.858 255.993 179.694 256 160.052 256H150.698L146.285 182.857L201.142 254.481Z" fill="#4B6272"/>
<path d="M256.001 201.469C255.6 203.479 255.129 205.369 254.554 207.186C250.79 219.082 244.183 229.544 235.573 237.715L173.715 164.572L256.001 201.469Z" fill="#4B6272"/>
<path d="M20.0915 237.715C11.7378 229.573 5.31146 219.291 1.60508 207.641C0.963263 205.623 0.43037 203.52 0 201.261L82.2857 164.572L20.0915 237.715Z" fill="#4B6272"/>
<path d="M255.998 155.976C255.998 162.735 255.979 168.582 255.911 173.714L182.855 146.285H255.998V155.976Z" fill="#4B6272"/>
<path d="M73.1429 146.285L0.0671962 173.714C0.00445375 168.611 0 162.824 0 156.168V146.285H73.1429Z" fill="#4B6272"/>
<path d="M157.557 0C184.196 0 197.517 0.00354058 208.273 3.58804C229.107 10.5332 245.459 26.8718 252.409 47.6891C255.996 58.4363 256 71.746 256 98.3641V128H176.057L233.716 103.508L216.614 92.1649L160.671 113.75L186.932 79.0279L168.045 73.8615L139.046 106.335L136.886 69.7623H117.648L115.455 106.335L86.4774 73.8615L67.6026 79.0279L93.8298 113.739L37.9204 92.1649L20.8182 103.508L78.4659 128H0V98.3641C0 71.746 0.00354358 58.4363 3.59091 47.6891C10.5416 26.8718 26.8933 10.5332 47.7273 3.58804C58.4831 0.00354058 71.8035 0 98.4429 0H157.557Z" fill="#4B6272"/>
</svg>
